<?xml version="1.0" encoding="UTF-8" standalone="no"?>
<!-- Created with Inkscape (http://www.inkscape.org/) -->

<svg
   xmlns:dc="http://purl.org/dc/elements/1.1/"
   xmlns:cc="http://creativecommons.org/ns#"
   xmlns:rdf="http://www.w3.org/1999/02/22-rdf-syntax-ns#"
   xmlns:svg="http://www.w3.org/2000/svg"
   xmlns="http://www.w3.org/2000/svg"
   xmlns:sodipodi="http://sodipodi.sourceforge.net/DTD/sodipodi-0.dtd"
   xmlns:inkscape="http://www.inkscape.org/namespaces/inkscape"
   width="220mm"
   height="375mm"
   viewBox="0 0 220 375"
   version="1.1"
   id="svg8"
   inkscape:version="0.92.3 (2405546, 2018-03-11)"
   sodipodi:docname="laser_cut_new.svg">
  <sodipodi:namedview
     id="base"
     pagecolor="#ffffff"
     bordercolor="#666666"
     borderopacity="1.0"
     inkscape:pageopacity="0.0"
     inkscape:pageshadow="2"
     inkscape:zoom="2.8284271"
     inkscape:cx="534.71402"
     inkscape:cy="1102.7254"
     inkscape:document-units="mm"
     inkscape:current-layer="svg8"
     showgrid="false"
     inkscape:window-width="1600"
     inkscape:window-height="847"
     inkscape:window-x="-8"
     inkscape:window-y="-8"
     inkscape:window-maximized="1"
     inkscape:snap-midpoints="true"
     inkscape:snap-nodes="false"
     inkscape:measure-start="585.838,1097.08"
     inkscape:measure-end="694.379,1208.8"
     showguides="false" />
  <defs
     id="defs2">
    <inkscape:path-effect
       is_visible="true"
       id="path-effect10272"
       effect="spiro" />
    <inkscape:path-effect
       fuse_tolerance="0"
       vertical_pattern="false"
       prop_units="false"
       tang_offset="0"
       normal_offset="0"
       spacing="0"
       scale_y_rel="false"
       prop_scale="0.26458333"
       copytype="single_stretched"
       pattern="M 0,5 C 0,2.24 2.24,0 5,0 7.76,0 10,2.24 10,5 10,7.76 7.76,10 5,10 2.24,10 0,7.76 0,5 Z"
       is_visible="true"
       id="path-effect10268"
       effect="skeletal" />
    <inkscape:path-effect
       is_visible="true"
       id="path-effect10266"
       effect="spiro" />
    <clipPath
       id="clipPath11420"
       clipPathUnits="userSpaceOnUse">
      <rect
         d="M -38.55357,73.427071 H 35.340771 V 201.93897 H -38.55357 Z"
         y="73.427071"
         x="-38.55357"
         height="128.5119"
         width="73.894341"
         id="rect11422"
         style="stroke-width:1;stroke-linecap:butt;stroke-miterlimit:4;stroke-dasharray:none;paint-order:normal" />
    </clipPath>
    <clipPath
       id="clipPath11420-1"
       clipPathUnits="userSpaceOnUse">
      <rect
         d="M -38.55357,73.427071 H 35.340771 V 201.93897 H -38.55357 Z"
         y="73.427071"
         x="-38.55357"
         height="128.5119"
         width="73.894341"
         id="rect11422-3"
         style="stroke-width:1;stroke-linecap:butt;stroke-miterlimit:4;stroke-dasharray:none;paint-order:normal" />
    </clipPath>
    <inkscape:path-effect
       is_visible="true"
       id="path-effect10272-8"
       effect="spiro" />
    <clipPath
       id="clipPath11420-1-1"
       clipPathUnits="userSpaceOnUse">
      <rect
         d="M -38.55357,73.427071 H 35.340771 V 201.93897 H -38.55357 Z"
         y="73.427071"
         x="-38.55357"
         height="128.5119"
         width="73.894341"
         id="rect11422-3-0"
         style="stroke-width:1;stroke-linecap:butt;stroke-miterlimit:4;stroke-dasharray:none;paint-order:normal" />
    </clipPath>
    <inkscape:path-effect
       is_visible="true"
       id="path-effect10272-8-7"
       effect="spiro" />
    <clipPath
       id="clipPath11420-1-1-1"
       clipPathUnits="userSpaceOnUse">
      <rect
         d="M -38.55357,73.427071 H 35.340771 V 201.93897 H -38.55357 Z"
         y="73.427071"
         x="-38.55357"
         height="128.5119"
         width="73.894341"
         id="rect11422-3-0-2"
         style="stroke-width:1;stroke-linecap:butt;stroke-miterlimit:4;stroke-dasharray:none;paint-order:normal" />
    </clipPath>
    <inkscape:path-effect
       is_visible="true"
       id="path-effect10272-8-7-0"
       effect="spiro" />
    <clipPath
       id="clipPath11420-1-9"
       clipPathUnits="userSpaceOnUse">
      <rect
         d="M -38.55357,73.427071 H 35.340771 V 201.93897 H -38.55357 Z"
         y="73.427071"
         x="-38.55357"
         height="128.5119"
         width="73.894341"
         id="rect11422-3-7"
         style="stroke-width:1;stroke-linecap:butt;stroke-miterlimit:4;stroke-dasharray:none;paint-order:normal" />
    </clipPath>
    <inkscape:path-effect
       is_visible="true"
       id="path-effect10272-8-6"
       effect="spiro" />
    <clipPath
       id="clipPath11420-1-1-1-2"
       clipPathUnits="userSpaceOnUse">
      <rect
         d="M -38.55357,73.427071 H 35.340771 V 201.93897 H -38.55357 Z"
         y="73.427071"
         x="-38.55357"
         height="128.5119"
         width="73.894341"
         id="rect11422-3-0-2-7"
         style="stroke-width:1;stroke-linecap:butt;stroke-miterlimit:4;stroke-dasharray:none;paint-order:normal" />
    </clipPath>
    <inkscape:path-effect
       is_visible="true"
       id="path-effect10272-8-7-0-1"
       effect="spiro" />
    <clipPath
       id="clipPath11420-1-9-2"
       clipPathUnits="userSpaceOnUse">
      <rect
         d="M -38.55357,73.427071 H 35.340771 V 201.93897 H -38.55357 Z"
         y="73.427071"
         x="-38.55357"
         height="128.5119"
         width="73.894341"
         id="rect11422-3-7-2"
         style="stroke-width:1;stroke-linecap:butt;stroke-miterlimit:4;stroke-dasharray:none;paint-order:normal" />
    </clipPath>
    <inkscape:path-effect
       is_visible="true"
       id="path-effect10272-8-6-9"
       effect="spiro" />
    <clipPath
       id="clipPath11420-1-1-9"
       clipPathUnits="userSpaceOnUse">
      <rect
         d="M -38.55357,73.427071 H 35.340771 V 201.93897 H -38.55357 Z"
         y="73.427071"
         x="-38.55357"
         height="128.5119"
         width="73.894341"
         id="rect11422-3-0-4"
         style="stroke-width:1;stroke-linecap:butt;stroke-miterlimit:4;stroke-dasharray:none;paint-order:normal" />
    </clipPath>
    <inkscape:path-effect
       is_visible="true"
       id="path-effect10272-8-7-5"
       effect="spiro" />
    <clipPath
       id="clipPath11420-1-3"
       clipPathUnits="userSpaceOnUse">
      <rect
         d="M -38.55357,73.427071 H 35.340771 V 201.93897 H -38.55357 Z"
         y="73.427071"
         x="-38.55357"
         height="128.5119"
         width="73.894341"
         id="rect11422-3-77"
         style="stroke-width:1;stroke-linecap:butt;stroke-miterlimit:4;stroke-dasharray:none;paint-order:normal" />
    </clipPath>
    <inkscape:path-effect
       is_visible="true"
       id="path-effect10272-8-2"
       effect="spiro" />
    <clipPath
       id="clipPath11420-3"
       clipPathUnits="userSpaceOnUse">
      <rect
         d="M -38.55357,73.427071 H 35.340771 V 201.93897 H -38.55357 Z"
         y="73.427071"
         x="-38.55357"
         height="128.5119"
         width="73.894341"
         id="rect11422-5"
         style="stroke-width:1;stroke-linecap:butt;stroke-miterlimit:4;stroke-dasharray:none;paint-order:normal" />
    </clipPath>
    <inkscape:path-effect
       is_visible="true"
       id="path-effect10272-0"
       effect="spiro" />
    <clipPath
       id="clipPath11420-3-6"
       clipPathUnits="userSpaceOnUse">
      <rect
         d="M -38.55357,73.427071 H 35.340771 V 201.93897 H -38.55357 Z"
         y="73.427071"
         x="-38.55357"
         height="128.5119"
         width="73.894341"
         id="rect11422-5-6"
         style="stroke-width:1;stroke-linecap:butt;stroke-miterlimit:4;stroke-dasharray:none;paint-order:normal" />
    </clipPath>
    <inkscape:path-effect
       is_visible="true"
       id="path-effect10272-0-8"
       effect="spiro" />
    <clipPath
       id="clipPath11420-3-6-6"
       clipPathUnits="userSpaceOnUse">
      <rect
         d="M -38.55357,73.427071 H 35.340771 V 201.93897 H -38.55357 Z"
         y="73.427071"
         x="-38.55357"
         height="128.5119"
         width="73.894341"
         id="rect11422-5-6-1"
         style="stroke-width:1;stroke-linecap:butt;stroke-miterlimit:4;stroke-dasharray:none;paint-order:normal" />
    </clipPath>
    <inkscape:path-effect
       is_visible="true"
       id="path-effect10272-0-8-8"
       effect="spiro" />
    <clipPath
       id="clipPath11420-3-6-6-3"
       clipPathUnits="userSpaceOnUse">
      <rect
         d="M -38.55357,73.427071 H 35.340771 V 201.93897 H -38.55357 Z"
         y="73.427071"
         x="-38.55357"
         height="128.5119"
         width="73.894341"
         id="rect11422-5-6-1-5"
         style="stroke-width:1;stroke-linecap:butt;stroke-miterlimit:4;stroke-dasharray:none;paint-order:normal" />
    </clipPath>
    <inkscape:path-effect
       is_visible="true"
       id="path-effect10272-0-8-8-8"
       effect="spiro" />
    <clipPath
       id="clipPath11420-3-6-3"
       clipPathUnits="userSpaceOnUse">
      <rect
         d="M -38.55357,73.427071 H 35.340771 V 201.93897 H -38.55357 Z"
         y="73.427071"
         x="-38.55357"
         height="128.5119"
         width="73.894341"
         id="rect11422-5-6-4"
         style="stroke-width:1;stroke-linecap:butt;stroke-miterlimit:4;stroke-dasharray:none;paint-order:normal" />
    </clipPath>
    <inkscape:path-effect
       is_visible="true"
       id="path-effect10272-0-8-83"
       effect="spiro" />
    <clipPath
       id="clipPath11420-3-6-6-4"
       clipPathUnits="userSpaceOnUse">
      <rect
         d="M -38.55357,73.427071 H 35.340771 V 201.93897 H -38.55357 Z"
         y="73.427071"
         x="-38.55357"
         height="128.5119"
         width="73.894341"
         id="rect11422-5-6-1-9"
         style="stroke-width:1;stroke-linecap:butt;stroke-miterlimit:4;stroke-dasharray:none;paint-order:normal" />
    </clipPath>
    <inkscape:path-effect
       is_visible="true"
       id="path-effect10272-0-8-8-3"
       effect="spiro" />
    <clipPath
       id="clipPath11420-3-6-5"
       clipPathUnits="userSpaceOnUse">
      <rect
         d="M -38.55357,73.427071 H 35.340771 V 201.93897 H -38.55357 Z"
         y="73.427071"
         x="-38.55357"
         height="128.5119"
         width="73.894341"
         id="rect11422-5-6-2"
         style="stroke-width:1;stroke-linecap:butt;stroke-miterlimit:4;stroke-dasharray:none;paint-order:normal" />
    </clipPath>
    <inkscape:path-effect
       is_visible="true"
       id="path-effect10272-0-8-88"
       effect="spiro" />
  </defs>
  <metadata
     id="metadata5">
    <rdf:RDF>
      <cc:Work
         rdf:about="">
        <dc:format>image/svg+xml</dc:format>
        <dc:type
           rdf:resource="http://purl.org/dc/dcmitype/StillImage" />
        <dc:title></dc:title>
      </cc:Work>
    </rdf:RDF>
  </metadata>
  <g
     inkscape:label="Layer 1"
     inkscape:groupmode="layer"
     id="layer1"
     transform="translate(-5,86.801063)" />
  <g
     inkscape:label="newlayer"
     inkscape:groupmode="layer"
     id="g6178"
     transform="translate(-5,86.801063)" />
  <g
     id="g8928"
     inkscape:groupmode="layer"
     inkscape:label="newlayer"
     transform="translate(-5,86.801063)" />
  <g
     inkscape:label="newlayer"
     inkscape:groupmode="layer"
     id="g10171"
     transform="translate(-5,86.801063)" />
  <flowRoot
     style="font-style:normal;font-weight:normal;font-size:40px;line-height:1.25;font-family:sans-serif;letter-spacing:0px;word-spacing:0px;fill:#000000;fill-opacity:1;stroke:#000000;stroke-width:0.02;stroke-miterlimit:4;stroke-dasharray:none;stroke-opacity:1"
     id="flowRoot11651"
     xml:space="preserve"
     transform="translate(0,81.801073)"><flowRegion
       style="stroke-width:0.02;stroke-miterlimit:4;stroke-dasharray:none;stroke:#000000;stroke-opacity:1"
       id="flowRegion11653"><rect
         style="stroke-width:0.02;stroke-miterlimit:4;stroke-dasharray:none;stroke:#000000;stroke-opacity:1"
         y="-909.90729"
         x="-1814.234"
         height="2998.1328"
         width="3131.4729"
         id="rect11655" /></flowRegion><flowPara
       id="flowPara11657" /></flowRoot>  <path
     inkscape:connector-curvature="0"
     d="m 5,129.99 h 6.165 v 0 h 10.17 v 0 h 11.08 v 0 h 10.17 v 0 h 11.07999 v 0 h 10.17 v 0 h 11.08 v 0 H 85.085 v 0 h 11.08 v 0 h 10.17 v 0 h 11.08 v 0 h 10.17 v 0 h 11.08 v 0 h 10.17 v 0 H 155"
     style="fill:none;stroke:#000000;stroke-width:0.02;stroke-miterlimit:4;stroke-dasharray:none;stroke-opacity:1"
     inkscape:label="part"
     id="path10199" />
  <path
     inkscape:connector-curvature="0"
     d="m 155.00001,9.9899914 h -6.165 v 0 h -10.17 v 0 h -11.08 v 0 h -10.17 v 0 h -11.08 v 0 h -10.17 v 0 h -11.08 v 0 H 74.915 v 0 h -11.08 v 0 h -10.17 v 0 h -11.08 v 0 h -10.17 v 0 h -11.08 v 0 h -10.17 v 0 H 5"
     style="fill:none;stroke:#000000;stroke-width:0.02;stroke-miterlimit:4;stroke-dasharray:none;stroke-opacity:1"
     inkscape:label="part"
     id="path10203" />
  <path
     transform="matrix(-1,0,0,1,190.34078,-66.459999)"
     clip-path="url(#clipPath11420-3)"
     inkscape:path-effect="#path-effect10272-0"
     inkscape:original-d="m 35.5,76.450405 c -2.64e-4,-39.999657 2.62e-4,79.999605 -4e-6,119.999585 -2.65e-4,40.00021 2.64e-4,-80.00001 4e-6,-119.999585 z"
     inkscape:connector-curvature="0"
     id="path10270"
     d="M 35.5,76.450405 C 19.792091,76.450404 4.1809086,82.916767 -6.9262607,94.023936 -18.03343,105.1311 -24.499794,120.74229 -24.499795,136.4502 c 0,15.7079 6.466363,31.31909 17.5735314,42.42626 11.1071686,11.10717 26.7183506,17.57353 42.4262596,17.57353 15.707909,0 31.319091,-6.46636 42.426261,-17.57353 11.107169,-11.10717 17.573533,-26.71835 17.573534,-42.42626 0,-15.70791 -6.466363,-31.31909 -17.573531,-42.426261 C 66.819091,82.916769 51.207909,76.450406 35.5,76.450405 Z"
     style="fill:none;stroke:#000000;stroke-width:0.02;stroke-linecap:butt;stroke-linejoin:miter;stroke-miterlimit:4;stroke-dasharray:none;stroke-opacity:1;paint-order:normal" />
  <path
     inkscape:connector-curvature="0"
     id="path11466-8"
     d="M 5.01,9.9999914 V 130 v 0"
     style="fill:none;stroke:#000000;stroke-width:0.02;stroke-linecap:butt;stroke-linejoin:miter;stroke-miterlimit:4;stroke-dasharray:none;stroke-opacity:1" />
  <g
     id="g1146"
     inkscape:groupmode="layer"
     inkscape:label="newlayer"
     transform="translate(-5,86.801063)" />
  <path
     inkscape:connector-curvature="0"
     d="m 155,129.99 h -6.165 v 0 h -10.17 v 0 h -11.08 v 0 h -10.17 v 0 h -11.08 v 0 H 96.165007 v 0 H 85.085008 v 0 H 74.914996 v 0 H 63.834998 v 0 H 53.664996 v 0 H 42.584995 v 0 H 32.414997 v 0 H 21.334996 v 0 h -10.17 v 0 H 5"
     style="fill:none;stroke:#000000;stroke-width:0.02;stroke-miterlimit:4;stroke-dasharray:none;stroke-opacity:1"
     inkscape:label="part"
     id="path10203-0" />
  <path
     transform="matrix(-1,0,0,1.0000035,190.34077,53.539326)"
     clip-path="url(#clipPath11420-3-6)"
     inkscape:path-effect="#path-effect10272-0-8"
     inkscape:original-d="m 35.5,76.450405 c -2.64e-4,-39.999657 2.62e-4,79.999605 -4e-6,119.999585 -2.65e-4,40.00021 2.64e-4,-80.00001 4e-6,-119.999585 z"
     inkscape:connector-curvature="0"
     id="path10270-8"
     d="M 35.5,76.450405 C 19.792091,76.450404 4.1809086,82.916767 -6.9262607,94.023936 -18.03343,105.1311 -24.499794,120.74229 -24.499795,136.4502 c 0,15.7079 6.466363,31.31909 17.5735314,42.42626 11.1071686,11.10717 26.7183506,17.57353 42.4262596,17.57353 15.707909,0 31.319091,-6.46636 42.426261,-17.57353 11.107169,-11.10717 17.573533,-26.71835 17.573534,-42.42626 0,-15.70791 -6.466363,-31.31909 -17.573531,-42.426261 C 66.819091,82.916769 51.207909,76.450406 35.5,76.450405 Z"
     style="fill:none;stroke:#000000;stroke-width:0.01999996;stroke-linecap:butt;stroke-linejoin:miter;stroke-miterlimit:4;stroke-dasharray:none;stroke-opacity:1;paint-order:normal" />
  <path
     inkscape:connector-curvature="0"
     id="path11466-8-9"
     d="m 5.01,130 v 119.99999 0"
     style="fill:none;stroke:#000000;stroke-width:0.02;stroke-linecap:butt;stroke-linejoin:miter;stroke-miterlimit:4;stroke-dasharray:none;stroke-opacity:1" />
  <path
     inkscape:connector-curvature="0"
     d="m 20,244.99 h 5.548483 v 0 h 9.153024 v 0 h 9.972005 v 0 h 9.152993 v 0 h 9.971988 v 0 h 9.152989 v 0 h 9.972016 v 0 h 9.153027 v 0 h 9.972005 v 0 h 9.15317 v 0 h 9.97179 v 0 h 9.15295 v 0 h 9.97203 v 0 h 9.15311 v 0 H 155"
     style="fill:none;stroke:#000000;stroke-width:0.02;stroke-miterlimit:4;stroke-dasharray:none;stroke-opacity:1"
     inkscape:label="part"
     id="path10199-5-0" />
  <path
     inkscape:connector-curvature="0"
     d="m 155,134.99 h -5.54844 v 0 h -9.15309 v 0 h -9.97196 v 0 h -9.15295 v 0 h -9.97193 v 0 h -9.1531 v 0 h -9.972002 v 0 h -9.153026 v 0 h -9.971997 v 0 h -9.152999 v 0 h -9.972011 v 0 h -9.152993 v 0 h -9.971996 v 0 h -9.153024 v 0 H 20"
     style="fill:none;stroke:#000000;stroke-width:0.02;stroke-miterlimit:4;stroke-dasharray:none;stroke-opacity:1"
     inkscape:label="part"
     id="path10203-0-8" />
  <path
     transform="matrix(-0.91668021,0,0,0.91666984,187.39619,64.91022)"
     clip-path="url(#clipPath11420-3-6-6)"
     inkscape:path-effect="#path-effect10272-0-8-8"
     inkscape:original-d="m 35.5,76.450405 c -2.64e-4,-39.999657 2.62e-4,79.999605 -4e-6,119.999585 -2.65e-4,40.00021 2.64e-4,-80.00001 4e-6,-119.999585 z"
     inkscape:connector-curvature="0"
     id="path10270-8-3"
     d="M 35.5,76.450405 C 19.792091,76.450404 4.1809086,82.916767 -6.9262607,94.023936 -18.03343,105.1311 -24.499794,120.74229 -24.499795,136.4502 c 0,15.7079 6.466363,31.31909 17.5735314,42.42626 11.1071686,11.10717 26.7183506,17.57353 42.4262596,17.57353 15.707909,0 31.319091,-6.46636 42.426261,-17.57353 11.107169,-11.10717 17.573533,-26.71835 17.573534,-42.42626 0,-15.70791 -6.466363,-31.31909 -17.573531,-42.426261 C 66.819091,82.916769 51.207909,76.450406 35.5,76.450405 Z"
     style="fill:none;stroke:#000000;stroke-width:0.02181798;stroke-linecap:butt;stroke-linejoin:miter;stroke-miterlimit:4;stroke-dasharray:none;stroke-opacity:1;paint-order:normal" />
  <path
     inkscape:connector-curvature="0"
     id="path11466-8-9-2"
     d="m 10.01,134.99995 v 110 0"
     style="fill:none;stroke:#000000;stroke-width:0.02;stroke-linecap:butt;stroke-linejoin:miter;stroke-miterlimit:4;stroke-dasharray:none;stroke-opacity:1" />
  <path
     inkscape:connector-curvature="0"
     id="path11466-8-9-2-4"
     d="m 10.010488,15 v 110 0"
     style="fill:none;stroke:#000000;stroke-width:0.02;stroke-linecap:butt;stroke-linejoin:miter;stroke-miterlimit:4;stroke-dasharray:none;stroke-opacity:1" />
  <path
     inkscape:connector-curvature="0"
     id="path11466-8-9-2-4-0"
     d="m 14.99,15 v 110 0"
     style="fill:none;stroke:#000000;stroke-width:0.02;stroke-linecap:butt;stroke-linejoin:miter;stroke-miterlimit:4;stroke-dasharray:none;stroke-opacity:1" />
  <path
     inkscape:connector-curvature="0"
     d="m 15,14.99 h -0.2055 v 0 h -0.339 v 0 h -0.369341 v 0 h -0.338994 v 0 h -0.36933 v 0 h -0.338994 v 0 h -0.369342 v 0 h -0.339 v 0 h -0.369342 v 0 h -0.339 v 0 h -0.369322 v 0 h -0.339 v 0 h -0.369336 v 0 h -0.339 v 0 H 10"
     style="fill:none;stroke:#000000;stroke-width:0.02;stroke-miterlimit:4;stroke-dasharray:none;stroke-opacity:1"
     inkscape:label="part"
     id="path10203-9" />
  <path
     inkscape:connector-curvature="0"
     d="m 15,124.99 h -0.2055 v 0 h -0.339 v 0 h -0.369341 v 0 h -0.338994 v 0 h -0.36933 v 0 h -0.338994 v 0 h -0.369342 v 0 h -0.339 v 0 h -0.369342 v 0 h -0.339 v 0 h -0.369322 v 0 h -0.339 v 0 h -0.369336 v 0 h -0.339 v 0 H 10"
     style="fill:none;stroke:#000000;stroke-width:0.02;stroke-miterlimit:4;stroke-dasharray:none;stroke-opacity:1"
     inkscape:label="part"
     id="path10203-9-6" />
  <path
     inkscape:connector-curvature="0"
     id="path11466-8-6"
     d="m 14.99,135 v 110 0"
     style="fill:none;stroke:#000000;stroke-width:0.02;stroke-linecap:butt;stroke-linejoin:miter;stroke-miterlimit:4;stroke-dasharray:none;stroke-opacity:1" />
  <path
     inkscape:connector-curvature="0"
     id="path11466-8-6-6"
     d="m 20.009574,135 v 110 0"
     style="fill:none;stroke:#000000;stroke-width:0.02;stroke-linecap:butt;stroke-linejoin:miter;stroke-miterlimit:4;stroke-dasharray:none;stroke-opacity:1" />
  <path
     inkscape:connector-curvature="0"
     d="m 15,134.99 h -0.205498 v 0 h -0.339003 v 0 h -0.369331 v 0 H 13.74717 v 0 h -0.369332 v 0 h -0.339004 v 0 h -0.369333 v 0 H 12.3305 v 0 h -0.369333 v 0 h -0.339 v 0 h -0.369334 v 0 h -0.339 v 0 H 10.5445 v 0 h -0.339001 v 0 H 10"
     style="fill:none;stroke:#000000;stroke-width:0.02;stroke-miterlimit:4;stroke-dasharray:none;stroke-opacity:1"
     inkscape:label="part"
     id="path10203-0-8-7" />
  <path
     inkscape:connector-curvature="0"
     d="m 15.000001,244.99 h -0.205498 v 0 h -0.339004 v 0 h -0.36933 v 0 H 13.74717 v 0 h -0.369332 v 0 h -0.339004 v 0 h -0.369332 v 0 H 12.3305 v 0 h -0.369333 v 0 h -0.339 v 0 h -0.369334 v 0 h -0.339 v 0 H 10.5445 v 0 h -0.339001 v 0 H 10"
     style="fill:none;stroke:#000000;stroke-width:0.02;stroke-miterlimit:4;stroke-dasharray:none;stroke-opacity:1"
     inkscape:label="part"
     id="path10203-0-8-7-7" />
  <path
     inkscape:connector-curvature="0"
     d="m 5,249.99 h 6.165 v 0 h 10.17 v 0 h 11.08 v 0 h 10.169998 v 0 h 11.079991 v 0 H 63.83499 v 0 h 11.079999 v 0 H 85.085 v 0 h 11.08 v 0 h 10.17 v 0 h 11.08 v 0 h 10.17 v 0 h 11.08 v 0 h 10.17 v 0 H 155"
     style="fill:none;stroke:#000000;stroke-width:0.02;stroke-miterlimit:4;stroke-dasharray:none;stroke-opacity:1"
     inkscape:label="part"
     id="path10199-4" />
  <path
     inkscape:connector-curvature="0"
     d="m 5,369.98999 h 6.165 v 0 h 10.16999 v 0 h 11.080007 v 0 h 10.169998 v 0 h 11.079991 v 0 h 10.170001 v 0 h 11.079999 v 0 h 10.170012 v 0 H 96.165 v 0 h 10.16999 v 0 h 11.08 v 0 h 10.17 v 0 h 11.08 v 0 h 10.17 v 0 h 6.165"
     style="fill:none;stroke:#000000;stroke-width:0.02;stroke-miterlimit:4;stroke-dasharray:none;stroke-opacity:1"
     inkscape:label="part"
     id="path10199-5" />
  <path
     inkscape:connector-curvature="0"
     d="m 155,249.99 h -6.165 v 0 h -10.17 v 0 h -11.08 v 0 h -10.17 v 0 h -11.08 v 0 H 96.16501 v 0 H 85.085008 v 0 H 74.914997 v 0 H 63.834998 v 0 H 53.664997 v 0 H 42.584995 v 0 H 32.414997 v 0 H 21.33499 v 0 H 11.165 v 0 H 5"
     style="fill:none;stroke:#000000;stroke-width:0.02;stroke-miterlimit:4;stroke-dasharray:none;stroke-opacity:1"
     inkscape:label="part"
     id="path10203-0-6" />
  <path
     transform="matrix(-1,0,0,1,190.34077,173.54001)"
     clip-path="url(#clipPath11420-3-6-5)"
     inkscape:path-effect="#path-effect10272-0-8-88"
     inkscape:original-d="m 35.5,76.450405 c -2.64e-4,-39.999657 2.62e-4,79.999605 -4e-6,119.999585 -2.65e-4,40.00021 2.64e-4,-80.00001 4e-6,-119.999585 z"
     inkscape:connector-curvature="0"
     id="path10270-8-8"
     d="M 35.5,76.450405 C 19.792091,76.450404 4.1809086,82.916767 -6.9262607,94.023936 -18.03343,105.1311 -24.499794,120.74229 -24.499795,136.4502 c 0,15.7079 6.466363,31.31909 17.5735314,42.42626 11.1071686,11.10717 26.7183506,17.57353 42.4262596,17.57353 15.707909,0 31.319091,-6.46636 42.426261,-17.57353 11.107169,-11.10717 17.573533,-26.71835 17.573534,-42.42626 0,-15.70791 -6.466363,-31.31909 -17.573531,-42.426261 C 66.819091,82.916769 51.207909,76.450406 35.5,76.450405 Z"
     style="fill:none;stroke:#000000;stroke-width:0.02;stroke-linecap:butt;stroke-linejoin:miter;stroke-miterlimit:4;stroke-dasharray:none;stroke-opacity:1;paint-order:normal" />
  <path
     inkscape:connector-curvature="0"
     id="path11466-8-9-7"
     d="m 5.01,250 v 119.99999 0"
     style="fill:none;stroke:#000000;stroke-width:0.02;stroke-linecap:butt;stroke-linejoin:miter;stroke-miterlimit:4;stroke-dasharray:none;stroke-opacity:1" />
  <path
     inkscape:connector-curvature="0"
     d="m 20,364.99 h 5.54848 v 0 h 9.153028 v 0 h 9.972002 v 0 h 9.152994 v 0 h 9.971989 v 0 h 9.152988 v 0 h 9.972016 v 0 h 9.153028 v 0 h 9.972005 v 0 h 9.15317 v 0 h 9.97179 v 0 h 9.15295 v 0 h 9.97203 v 0 h 9.15311 v 0 H 155"
     style="fill:none;stroke:#000000;stroke-width:0.02;stroke-miterlimit:4;stroke-dasharray:none;stroke-opacity:1"
     inkscape:label="part"
     id="path10199-5-0-8" />
  <path
     inkscape:connector-curvature="0"
     d="m 155.002,254.98981 h -5.54852 v 0 h -9.15323 v 0 h -9.97213 v 0 h -9.15308 v 0 H 111.203 v 0 h -9.15323 v 0 h -9.972174 v 0 h -9.153162 v 0 h -9.972148 v 0 h -9.153134 v 0 h -9.972156 v 0 h -9.153128 v 0 h -9.972145 v 0 H 25.54856 v 0 H 20"
     style="fill:none;stroke:#000000;stroke-width:0.02;stroke-miterlimit:4;stroke-dasharray:none;stroke-opacity:1"
     inkscape:label="part"
     id="path10203-0-8-0" />
  <path
     transform="matrix(-0.91668021,0,0,0.91666984,187.39619,184.91022)"
     clip-path="url(#clipPath11420-3-6-6-4)"
     inkscape:path-effect="#path-effect10272-0-8-8-3"
     inkscape:original-d="m 35.5,76.450405 c -2.64e-4,-39.999657 2.62e-4,79.999605 -4e-6,119.999585 -2.65e-4,40.00021 2.64e-4,-80.00001 4e-6,-119.999585 z"
     inkscape:connector-curvature="0"
     id="path10270-8-3-6"
     d="M 35.5,76.450405 C 19.792091,76.450404 4.1809086,82.916767 -6.9262607,94.023936 -18.03343,105.1311 -24.499794,120.74229 -24.499795,136.4502 c 0,15.7079 6.466363,31.31909 17.5735314,42.42626 11.1071686,11.10717 26.7183506,17.57353 42.4262596,17.57353 15.707909,0 31.319091,-6.46636 42.426261,-17.57353 11.107169,-11.10717 17.573533,-26.71835 17.573534,-42.42626 0,-15.70791 -6.466363,-31.31909 -17.573531,-42.426261 C 66.819091,82.916769 51.207909,76.450406 35.5,76.450405 Z"
     style="fill:none;stroke:#000000;stroke-width:0.02181798;stroke-linecap:butt;stroke-linejoin:miter;stroke-miterlimit:4;stroke-dasharray:none;stroke-opacity:1;paint-order:normal" />
  <path
     inkscape:connector-curvature="0"
     id="path11466-8-9-2-3"
     d="m 10.01,254.99995 v 110 0"
     style="fill:none;stroke:#000000;stroke-width:0.02;stroke-linecap:butt;stroke-linejoin:miter;stroke-miterlimit:4;stroke-dasharray:none;stroke-opacity:1" />
  <path
     inkscape:connector-curvature="0"
     d="m 155,369.99 h -6.165 v 0 h -10.17 v 0 h -11.08 v 0 h -10.17 v 0 h -11.08 v 0 h -10.17 v 0 H 85.085011 v 0 H 74.914989 v 0 H 63.835001 v 0 H 53.664989 v 0 H 42.58499 v 0 H 32.414989 v 0 H 21.33499 v 0 h -10.17 v 0 H 5"
     style="fill:none;stroke:#000000;stroke-width:0.02;stroke-miterlimit:4;stroke-dasharray:none;stroke-opacity:1"
     inkscape:label="part"
     id="path10203-0-9" />
  <path
     inkscape:connector-curvature="0"
     id="path11466-8-6-2"
     d="M 14.99,255.00001 V 365 v 0"
     style="fill:none;stroke:#000000;stroke-width:0.02;stroke-linecap:butt;stroke-linejoin:miter;stroke-miterlimit:4;stroke-dasharray:none;stroke-opacity:1" />
  <path
     inkscape:connector-curvature="0"
     id="path11466-8-6-6-9"
     d="M 20.00957,255.00001 V 365 v 0"
     style="fill:none;stroke:#000000;stroke-width:0.02;stroke-linecap:butt;stroke-linejoin:miter;stroke-miterlimit:4;stroke-dasharray:none;stroke-opacity:1" />
  <path
     inkscape:connector-curvature="0"
     d="m 15,254.99 h -0.2055 v 0 h -0.339 v 0 h -0.36933 v 0 h -0.339 v 0 h -0.36933 v 0 h -0.33901 v 0 H 12.6695 v 0 h -0.339 v 0 h -0.36933 v 0 h -0.339 v 0 h -0.36934 v 0 h -0.339 v 0 H 10.5445 v 0 h -0.339 v 0 H 10"
     style="fill:none;stroke:#000000;stroke-width:0.02;stroke-miterlimit:4;stroke-dasharray:none;stroke-opacity:1"
     inkscape:label="part"
     id="path10203-0-8-7-0" />
  <path
     inkscape:connector-curvature="0"
     d="m 15,364.99 h -0.2055 v 0 h -0.339 v 0 h -0.36933 v 0 h -0.339 v 0 h -0.36933 v 0 h -0.33901 v 0 H 12.6695 v 0 h -0.339 v 0 h -0.36933 v 0 h -0.339 v 0 h -0.36934 v 0 h -0.339 v 0 H 10.5445 v 0 h -0.339 v 0 H 10"
     style="fill:none;stroke:#000000;stroke-width:0.02;stroke-miterlimit:4;stroke-dasharray:none;stroke-opacity:1"
     inkscape:label="part"
     id="path10203-0-8-7-7-8" />
  <ellipse
     style="fill:none;fill-opacity:1;stroke:#000000;stroke-width:0.00998004;stroke-linecap:butt;stroke-miterlimit:4;stroke-dasharray:none;stroke-opacity:1;paint-order:normal"
     id="path204"
     cx="157.5"
     cy="84.5"
     rx="2.4950101"
     ry="2.4950099" />
  <ellipse
     style="fill:none;fill-opacity:1;stroke:#000000;stroke-width:0.00998004;stroke-linecap:butt;stroke-miterlimit:4;stroke-dasharray:none;stroke-opacity:1;paint-order:normal"
     id="path204-4"
     cx="157.5"
     cy="55.5"
     rx="2.4950101"
     ry="2.4950099" />
  <ellipse
     style="fill:none;fill-opacity:1;stroke:#000000;stroke-width:0.00998004;stroke-linecap:butt;stroke-miterlimit:4;stroke-dasharray:none;stroke-opacity:1;paint-order:normal"
     id="path204-5"
     cx="186.5"
     cy="84.5"
     rx="2.4950101"
     ry="2.4950099" />
  <ellipse
     style="fill:none;fill-opacity:1;stroke:#000000;stroke-width:0.00998004;stroke-linecap:butt;stroke-miterlimit:4;stroke-dasharray:none;stroke-opacity:1;paint-order:normal"
     id="path204-4-5"
     cx="186.5"
     cy="55.5"
     rx="2.4950101"
     ry="2.4950099" />
</svg>
